<?xml version="1.0" encoding="UTF-8"?>
<svg id="Layer_1" data-name="Layer 1" xmlns="http://www.w3.org/2000/svg" viewBox="0 0 796.04 424.3">
  <defs>
    <style>
      .cls-1 {
        fill: #22505f;
      }
    </style>
  </defs>
  <path class="cls-1" d="m96.31,351.4l50.28-.27c-8.51,22.61-28.73,35.12-51.35,35.12-15.7,0-29-5.32-39.64-16.23-10.38-10.91-15.7-24.48-15.7-40.71s5.32-29.8,15.7-40.71c10.64-10.91,23.95-16.49,39.64-16.49,20.22,0,38.05,10.11,46.83,27.94l38.05-10.91c-7.72-16.76-18.89-30.33-34.06-40.18-14.9-9.84-31.93-14.9-50.82-14.9-26.34,0-48.69,9.31-67.31,27.94C9.31,280.63,0,302.98,0,329.32s9.31,48.69,27.94,67.31c18.62,18.36,40.97,27.67,67.31,27.67s47.09-8.51,64.39-25.81c17.29-17.29,25.81-39.11,25.81-65.72v-15.17h-89.66l.53,33.79Zm0-221.23l50.28-.27c-8.51,22.61-28.73,35.12-51.35,35.12-15.7,0-29-5.32-39.64-16.23-10.38-10.91-15.7-24.48-15.7-40.71s5.32-29.8,15.7-40.71c10.64-10.91,23.95-16.49,39.64-16.49,20.22,0,38.05,10.11,46.83,27.94l38.05-10.91c-7.72-16.76-18.89-30.33-34.06-40.18-14.9-9.84-31.93-14.9-50.82-14.9-26.34,0-48.69,9.31-67.31,27.94C9.31,59.4,0,81.75,0,108.09s9.31,48.69,27.94,67.31c18.62,18.36,40.97,27.67,67.31,27.67s47.09-8.51,64.39-25.81c17.29-17.29,25.81-39.11,25.81-65.72v-15.17h-89.66l.53,33.79Zm109.08,292h38.58v-186.24h-38.58v186.24Zm415.01-268.32c0,20.75,7.72,35.12,23.41,43.37,15.7,8.25,34.85,9.05,57.47,2.39v-37.25c-29.27,11.17-42.84,1.33-42.84-8.78l.27-60.39h40.71v-33.26h-40.71l.27-31.13h-38.05l-.53,125.05Zm-348.5,47.09h38.58V59.93h-38.58v141.01Zm36.45-160.43c9.31-9.31,9.31-24.21,0-33.52-9.31-9.31-24.21-9.31-33.52,0-9.31,9.31-9.31,24.21,0,33.52,9.31,8.78,24.21,8.78,33.52,0Zm242.91,113.07l.27-60.39h48.71v-33.26h-48.71l.27-31.13h-38.05l-.27,31.13h-23.95v33.26h23.95l-.27,60.66c0,20.75,7.72,35.12,23.41,43.37,15.7,8.25,34.85,9.05,57.47,2.39v-37.25c-29.27,11.17-42.84,1.33-42.84-8.78Zm160.43,138.22c-12.77-8.78-27.94-13.04-45.5-13.04s-33.26,4.52-45.76,13.3c-12.5,8.78-18.62,20.49-18.62,34.59l36.72-.53c3.46-9.84,12.77-14.63,28.47-14.63,18.36,0,27.4,5.85,27.4,17.83v6.65h-40.17c-34.06,0-55.61,13.3-55.61,43.37,0,17.29,7.72,30.33,19.42,36.72,11.71,6.12,22.61,8.25,34.06,8.25,18.89,0,34.85-7.18,42.3-15.7v13.57h36.45v-97.38c0-13.57-6.39-24.48-19.16-32.99Zm-29.8,92.32c-8.25,5.85-17.03,8.78-26.61,8.78-10.91,0-17.03-4.26-18.09-12.51-1.33-10.64,7.98-17.29,24.21-17.29h32.99c0,8.25-4.26,15.16-12.5,21.02Zm-167.91-105.36c-15.17.27-28.2,5.05-38.85,14.63v-57.47h-38.58v186.24h38.58v-11.71c10.64,9.31,23.68,13.83,38.85,13.83,19.95,0,36.72-7.18,49.75-21.28,13.3-14.1,19.96-31.4,19.96-51.35s-6.65-37.78-20.22-51.88c-13.3-14.1-29.8-21.28-49.49-21.02Zm22.61,99.51c-7.45,7.45-16.23,11.17-26.34,11.17s-19.16-3.72-26.61-11.17c-14.9-15.16-14.9-38.05,0-53.21,7.45-7.72,16.23-11.44,26.61-11.44s19.16,3.72,26.34,11.44c7.45,7.45,11.17,16.23,11.17,26.61s-3.72,18.89-11.17,26.61Zm220.86-142.34v186.24h38.58v-186.24h-38.58Zm-321.13-34.99h38.58v-87.53c0-16.76-5.85-30.33-17.29-40.44-11.44-10.38-25.28-15.43-41.24-15.43s-28.73,5.05-39.38,15.43v-13.04h-38.58v141.01h38.58v-72.9c0-19.42,12.5-34.59,31.4-34.59,15.7,0,27.94,11.97,27.94,29.8v77.69Zm-230.94,0h38.58V14.7h-38.58v186.24Zm133.03,77.82c-19.95,0-37.25,7.18-51.35,21.55-14.1,14.1-21.28,31.13-21.28,51.08s7.18,36.98,21.28,51.35c14.37,14.37,31.39,21.55,51.35,21.55s37.25-7.18,51.35-21.28c14.1-14.37,21.28-31.66,21.28-51.62s-7.18-36.98-21.55-51.08c-14.1-14.37-31.13-21.55-51.08-21.55Zm26.07,99.24c-7.18,7.45-15.7,11.17-26.07,11.17s-18.89-3.72-26.07-11.17c-7.18-7.45-10.64-16.23-10.64-26.61s3.46-19.16,10.64-26.34c7.18-7.45,15.7-11.17,26.07-11.17s18.89,3.72,26.07,11.17c7.18,7.18,10.64,15.96,10.64,26.34s-3.46,19.16-10.64,26.61Z"/>
</svg>