<?xml version="1.0" encoding="UTF-8"?>
<svg id="Camada_1" data-name="Camada 1" xmlns="http://www.w3.org/2000/svg" width="1944.6" height="519.98" viewBox="0 0 1944.6 519.98">
  <defs>
    <style>
      .cls-1 {
        fill: #1ab394;
      }
    </style>
  </defs>
  <g id="Camada_1-2" data-name="Camada 1-2">
    <g>
      <g id="LOGO">
        <path class="cls-1" d="M285.45,148.65l-48.21-48.27,48.25-48.21s-8.53,20.87-8.55,48.23c0,27.36,8.51,48.25,8.51,48.25Z"/>
        <polygon class="cls-1" points="387.83 113.99 284.55 171.01 183.12 113.88 81.02 170.9 80.97 239.44 489.87 178.46 387.83 113.99"/>
        <polygon class="cls-1" points="389.77 363.73 478.04 284.63 478.09 207.86 69.19 268.56 69.19 284.44 118.3 328.57 389.77 363.73"/>
        <polygon class="cls-1" points="175.34 360.39 296.76 467.81 387.7 387.55 175.34 360.39"/>
      </g>
      <path class="cls-1" d="M698.1,235.02h-42.07l-.06,151.17h-42.07l.09-186.8,75.89.04h28.24c16.76,0,29.7,6.48,35.89,13.55,5.88,7.07,12.34,17.94,12.34,32.35v34.12l-.04,106.77h-42.07l.04-100.33c0-9.71,0,3.83,0-32.65-.28-15.29-9.99-18.24-26.17-18.24v.02Z"/>
      <path class="cls-1" d="M1356.9,386.54h-42.07l.09-186.8h42.07l-.09,186.8Z"/>
      <path class="cls-1" d="M883.34,351.02h42.07l.06-151.17h42.35l-.09,186.8-75.89-.04h-28.24c-16.76,0-29.7-6.48-35.89-13.55-5.88-7.07-12.34-17.94-12.34-32.35v-34.12l.04-106.47h42.07l-.04,100.33c0,9.71,0-3.83,0,32.65,0,14.99,9.11,17.94,25.87,17.96l.02-.04Z"/>
      <path class="cls-1" d="M1469.28,351.3h42.07l.06-151.17h42.07l-.09,186.8-75.89-.04h-28.24c-16.76,0-29.7-6.48-35.89-13.55-5.88-7.07-12.34-17.94-12.34-32.35v-34.12l.04-106.47h42.07l-.04,100.33c0,9.71,0-3.83,0,32.65.28,14.99,9.69,17.94,26.17,17.96v-.04Z"/>
      <path class="cls-1" d="M1691.4,235.52h-42.07l-.06,151.17h-42.07l.09-186.8,75.89.04h28.24c16.76,0,29.7,6.48,35.89,13.55,5.88,7.07,12.34,17.94,12.34,32.35v34.12l-.04,106.77h-42.07l.04-100.33c0-9.71,0,3.83,0-32.65-.28-15.29-9.41-18.24-26.17-18.24v.02Z"/>
      <path class="cls-1" d="M1801.7,235.56h-42.07l-.06,151.17h-42.07l.09-186.8,75.89.04h28.24c16.76,0,29.7,6.48,35.89,13.55,5.88,7.07,12.34,17.94,12.34,32.35v34.12l-.04,106.77h-42.07l.04-100.33c0-9.71,0,3.83,0-32.65-.58-15.29-9.99-18.24-26.17-18.24v.02Z"/>
      <path class="cls-1" d="M1129.24,351.13h-42.07c-16.18-.02-25.89-2.97-25.87-18.85,0-36.47,0-22.94,0-32.65v-64.71l55.03.02,9.71-35.28h-64.71l.02-65.63-42.07,9.69v55.9h-.02l-.04,106.47v34.12c0,14.11,6.46,25.31,12.34,32.35,6.46,7.07,19.11,13.55,35.89,13.55,9.71,0,62.36.02,62.36.02l-.58-35h0Z"/>
      <path class="cls-1" d="M1270.48,235.3h-35.3c-16.18-.02-25.89,2.91-25.89,18.8,0,36.47,0,22.94,0,32.65l-.04,100.31h-42.07l.04-106.8v-34.12c0-14.41,6.48-25.29,12.36-32.35,5.88-7.07,19.13-13.53,35.89-13.51,9.71,0,65.31.02,65.31.02l-10.32,35,.02-.02Z"/>
    </g>
  </g>
</svg>