<svg width="693" height="207" viewBox="0 0 693 207" fill="none" xmlns="http://www.w3.org/2000/svg">
<g clip-path="url(#clip0_8_27748)">
<path d="M223.859 171.976H257.412V123.321C257.412 112.625 264.774 105.563 274.671 105.563C278.135 105.563 283.736 106.112 287.067 107.267V78.6425C284.399 77.8473 281.484 77.374 278.551 77.374C268.578 77.374 260.8 83.205 257.393 96.3437H256.428V78.5667H223.84V171.976H223.859Z" fill="#3E3A40"/>
<path d="M322.4 114.575C322.589 106.491 329.269 100.963 337.482 100.963C345.809 100.963 352.13 106.548 352.319 114.575H322.4ZM337.464 173.68C363.352 173.68 380.006 161.28 383.166 141.818H352.528C350.578 147.1 345.052 150.091 338.183 150.091C328.209 150.091 322.381 143.522 322.381 134.529V133.071H383.166V125.29C383.166 95.5485 364.923 77.374 336.725 77.374C307.79 77.374 289.319 96.5898 289.319 125.536C289.338 155.733 307.563 173.68 337.464 173.68Z" fill="#3E3A40"/>
<path d="M429.683 125.272C429.683 111.414 435.266 103.141 444.52 103.141C453.755 103.141 459.111 111.414 459.111 125.272C459.111 139.13 453.755 147.403 444.52 147.403C435.285 147.403 429.683 138.903 429.683 125.272ZM396.868 207H430.421V156.642H430.913C434.812 166.127 443.801 173.188 456.935 173.188C476.862 173.188 493.649 157.626 493.649 125.272C493.649 91.4596 475.651 77.3555 457.181 77.3555C443.328 77.3555 434.566 85.3825 430.932 94.8674H430.194V78.5671H396.887V207H396.868Z" fill="#3E3A40"/>
<path d="M541.244 47.4429H507.69V171.976H541.244V47.4429Z" fill="#3E3A40"/>
<path d="M595.292 152.269C589.577 152.269 585.565 149.467 585.565 144.241C585.565 139.433 588.971 135.722 596.749 134.51C602.105 133.659 606.59 132.561 610.129 131.103V138.884C610.11 147.403 602.881 152.269 595.292 152.269ZM584.354 173.434C596.503 173.434 605.682 169.307 611.34 158.838H612.078V171.976H643.436V108.006C643.436 90.7402 627.085 77.3555 600.402 77.3555C572.507 77.3555 558.768 91.9519 557.613 108.972H588.498C589.293 103.197 593.551 100.452 599.929 100.452C605.757 100.452 609.902 103.122 609.902 107.987V108.233C609.902 113.648 603.941 115.352 588.271 116.506C569.006 117.907 553.999 125.688 553.999 146.172C553.961 164.801 566.47 173.434 584.354 173.434Z" fill="#3E3A40"/>
<path d="M676.233 68.8548C685.355 68.8548 692.773 61.9825 692.773 53.539C692.773 45.0954 685.355 38.2231 676.233 38.2231C667.111 38.2231 659.693 45.0954 659.693 53.539C659.693 61.9825 667.111 68.8548 676.233 68.8548ZM659.466 171.976H693.019V78.5668H659.466V171.976Z" fill="#3E3A40"/>
<path d="M138.585 63.0239C137.733 62.2287 136.333 62.7399 136.144 63.8947C132.624 85.3255 122.631 105.866 106.148 122.356C104.388 124.117 102.552 125.821 100.679 127.449C100.319 127.771 100.281 128.32 100.622 128.679L118.487 147.497C118.903 147.933 118.6 148.671 117.995 148.671L53.4998 151.019C53.0456 151.019 52.7239 150.602 52.8185 150.167L65.6305 93.3336C65.744 92.7846 66.4253 92.6142 66.8038 93.0118L82.5112 109.558C82.8329 109.899 83.3439 109.918 83.7035 109.634C85.4635 108.157 87.1477 106.586 88.7942 104.958C105.05 88.6953 113.112 67.3024 113.018 45.9474C112.999 40.4572 112.204 34.967 110.236 29.8365C103.518 12.3814 86.6179 0 66.8227 0C56.0357 0 46.1003 3.6917 38.2087 9.86345C37.9438 10.0717 38.1709 10.4693 38.4926 10.3746C43.8293 8.5193 49.9988 9.712 54.2757 13.9716C60.218 19.9162 60.218 29.5525 54.2757 35.516L25.6428 63.7243C6.24508 82.2018 -4.2013 110.013 1.60855 140C8.15646 173.756 35.7296 199.957 69.7182 205.05C120.928 212.736 164.966 173.264 164.966 123.492C164.966 99.6001 154.803 78.0936 138.585 63.0239Z" fill="#FF4857"/>
</g>
<defs>
<clipPath id="clip0_8_27748">
<rect width="693" height="207" fill="white"/>
</clipPath>
</defs>
</svg>
